<?xml version="1.0" standalone="no"?>
<!DOCTYPE svg PUBLIC "-//W3C//DTD SVG 20010904//EN"
 "http://www.w3.org/TR/2001/REC-SVG-20010904/DTD/svg10.dtd">
<svg version="1.0" xmlns="http://www.w3.org/2000/svg"
 width="512.000000pt" height="512.000000pt" viewBox="0 0 512.000000 512.000000"
 preserveAspectRatio="xMidYMid meet">

<g transform="translate(0.000000,512.000000) scale(0.100000,-0.100000)"
fill="#000000" stroke="none">
<path d="M1327 5109 c-103 -25 -206 -111 -254 -214 l-28 -60 -3 -295 c-2 -162
0 -305 3 -318 12 -47 105 -62 132 -20 4 7 10 146 13 309 l5 296 30 49 c19 30
49 60 79 79 48 29 52 30 201 34 l152 3 5 -110 c4 -93 8 -118 31 -165 30 -61
83 -114 149 -149 l43 -23 735 0 735 0 43 23 c66 35 119 88 149 149 23 47 27
72 31 165 l5 110 151 -4 c162 -4 202 -15 252 -70 58 -63 59 -68 62 -402 l3
-310 -217 -359 c-195 -324 -217 -364 -217 -404 0 -89 62 -133 190 -133 l83 0
2 -856 3 -856 37 -34 c24 -21 52 -36 78 -40 l40 -7 0 -177 c0 -172 1 -177 23
-198 31 -29 77 -29 105 1 21 22 22 32 22 199 l0 176 173 4 c192 4 222 12 257
71 19 31 20 57 20 873 l0 842 95 4 c108 5 137 19 169 83 15 31 17 45 10 74
-15 55 -550 936 -581 956 -28 19 -85 24 -120 12 l-22 -8 -3 213 -3 213 -31 65
c-40 83 -102 145 -184 184 l-65 31 -1275 2 c-721 0 -1291 -3 -1313 -8z m3195
-1269 l233 -385 -84 -7 c-95 -7 -125 -23 -153 -79 -17 -32 -18 -94 -18 -871
l0 -838 -230 0 -230 0 0 848 c0 807 -1 848 -19 875 -31 48 -58 60 -148 66
l-84 6 226 375 c280 464 256 426 266 409 4 -8 113 -187 241 -399z"/>
<path d="M1095 3971 c-51 -21 -54 -34 -57 -242 l-3 -194 -72 -7 c-157 -16
-288 -81 -414 -207 -69 -69 -94 -103 -127 -171 -64 -130 -74 -179 -79 -392 -5
-171 -7 -188 -24 -193 -10 -3 -38 -28 -63 -56 -33 -37 -48 -63 -56 -102 -8
-36 -10 -233 -8 -652 3 -593 3 -600 25 -640 25 -47 64 -85 113 -111 32 -17 66
-19 372 -22 l337 -3 3 -347 3 -347 28 -60 c37 -79 114 -156 191 -192 l61 -28
1295 0 1295 0 65 31 c82 39 144 101 184 184 l31 65 3 281 c3 258 2 282 -15
302 -26 32 -73 38 -103 14 l-25 -20 -5 -274 c-5 -255 -6 -276 -27 -313 -24
-46 -54 -75 -103 -101 -34 -18 -84 -19 -1301 -19 l-1266 0 -49 30 c-30 19 -60
49 -79 79 l-30 49 -3 334 -3 333 254 0 c275 0 305 4 372 55 19 15 45 50 60 78
l25 51 0 620 0 621 -24 50 c-23 51 -69 98 -105 110 -18 5 -19 20 -23 203 -4
179 -7 204 -31 277 -37 111 -90 197 -172 281 -82 82 -181 144 -282 176 l-73
23 0 197 c0 108 -3 204 -6 213 -5 13 -55 47 -66 44 -2 0 -12 -4 -23 -8z m-55
-1136 l0 -245 -126 0 -126 0 4 148 c5 178 19 219 100 290 28 26 90 51 126 52
l22 0 0 -245z m231 100 c15 -33 19 -65 19 -192 l0 -153 -50 0 -50 0 0 222 0
222 31 -30 c17 -16 40 -47 50 -69z m449 -525 c20 -20 20 -33 20 -622 l0 -602
-22 -23 -21 -23 -554 0 -553 0 -10 26 c-13 34 -13 1204 0 1238 l10 26 555 0
c542 0 555 0 575 -20z"/>
<path d="M977 2226 c-104 -29 -179 -129 -179 -240 0 -35 6 -75 14 -92 14 -26
13 -49 -8 -229 -30 -262 -31 -250 10 -291 l34 -34 200 0 c197 0 199 0 225 24
14 13 29 36 33 51 3 14 -4 118 -16 231 -21 193 -22 207 -6 262 20 72 20 85 0
151 -37 127 -177 203 -307 167z"/>
<path d="M2702 3890 c-33 -15 -47 -29 -62 -62 -19 -41 -20 -73 -20 -875 l0
-833 -80 0 c-97 0 -142 -17 -170 -62 -44 -73 -44 -72 251 -563 149 -247 281
-460 292 -473 47 -51 137 -50 185 1 11 12 142 224 291 472 296 490 296 490
251 563 -28 45 -73 62 -170 62 l-80 0 0 844 0 843 -23 34 c-44 66 -61 69 -357
69 -241 0 -269 -2 -308 -20z m528 -977 c0 -778 1 -840 18 -872 29 -58 63 -75
153 -80 55 -2 79 -7 76 -15 -3 -6 -86 -145 -185 -309 l-181 -299 -23 39 c-135
217 -358 593 -358 603 0 8 10 24 22 37 20 21 30 23 119 23 75 0 101 4 113 16
14 14 16 105 16 855 l0 839 115 0 115 0 0 -837z"/>
<path d="M1631 564 c-12 -15 -21 -37 -21 -49 0 -12 9 -34 21 -49 l20 -26 968
0 968 0 21 23 c29 31 29 77 -1 105 l-23 22 -966 0 -967 0 -20 -26z"/>
</g>
</svg>
